<svg xmlns="http://www.w3.org/2000/svg" xmlns:xlink="http://www.w3.org/1999/xlink" width="500" zoomAndPan="magnify" viewBox="0 0 375 374.999991" height="500" preserveAspectRatio="xMidYMid meet" version="1.0"><defs><g/></defs><g fill="#000000" fill-opacity="1"><g transform="translate(28.590852, 181.357092)"><g><path d="M 13.078125 -17.265625 C 12.992188 -17.117188 12.898438 -17.007812 12.796875 -16.9375 C 12.703125 -16.875 12.582031 -16.84375 12.4375 -16.84375 C 12.28125 -16.84375 12.09375 -16.921875 11.875 -17.078125 C 11.65625 -17.242188 11.378906 -17.421875 11.046875 -17.609375 C 10.710938 -17.804688 10.316406 -17.984375 9.859375 -18.140625 C 9.398438 -18.304688 8.84375 -18.390625 8.1875 -18.390625 C 7.5625 -18.390625 7.015625 -18.304688 6.546875 -18.140625 C 6.078125 -17.972656 5.679688 -17.742188 5.359375 -17.453125 C 5.046875 -17.171875 4.804688 -16.835938 4.640625 -16.453125 C 4.484375 -16.066406 4.40625 -15.648438 4.40625 -15.203125 C 4.40625 -14.640625 4.539062 -14.164062 4.8125 -13.78125 C 5.09375 -13.40625 5.460938 -13.082031 5.921875 -12.8125 C 6.390625 -12.550781 6.914062 -12.320312 7.5 -12.125 C 8.09375 -11.9375 8.691406 -11.734375 9.296875 -11.515625 C 9.910156 -11.304688 10.507812 -11.070312 11.09375 -10.8125 C 11.6875 -10.550781 12.210938 -10.21875 12.671875 -9.8125 C 13.140625 -9.414062 13.507812 -8.925781 13.78125 -8.34375 C 14.0625 -7.769531 14.203125 -7.0625 14.203125 -6.21875 C 14.203125 -5.320312 14.050781 -4.476562 13.75 -3.6875 C 13.445312 -2.90625 13.003906 -2.222656 12.421875 -1.640625 C 11.835938 -1.054688 11.117188 -0.597656 10.265625 -0.265625 C 9.410156 0.0664062 8.441406 0.234375 7.359375 0.234375 C 6.023438 0.234375 4.8125 -0.00390625 3.71875 -0.484375 C 2.632812 -0.972656 1.707031 -1.625 0.9375 -2.4375 L 1.75 -3.75 C 1.820312 -3.851562 1.910156 -3.941406 2.015625 -4.015625 C 2.128906 -4.085938 2.253906 -4.125 2.390625 -4.125 C 2.515625 -4.125 2.65625 -4.070312 2.8125 -3.96875 C 2.96875 -3.875 3.144531 -3.75 3.34375 -3.59375 C 3.539062 -3.445312 3.765625 -3.28125 4.015625 -3.09375 C 4.273438 -2.914062 4.566406 -2.75 4.890625 -2.59375 C 5.222656 -2.445312 5.597656 -2.320312 6.015625 -2.21875 C 6.441406 -2.125 6.914062 -2.078125 7.4375 -2.078125 C 8.09375 -2.078125 8.675781 -2.164062 9.1875 -2.34375 C 9.707031 -2.519531 10.144531 -2.769531 10.5 -3.09375 C 10.863281 -3.425781 11.140625 -3.820312 11.328125 -4.28125 C 11.515625 -4.738281 11.609375 -5.25 11.609375 -5.8125 C 11.609375 -6.425781 11.46875 -6.929688 11.1875 -7.328125 C 10.90625 -7.722656 10.535156 -8.050781 10.078125 -8.3125 C 9.617188 -8.582031 9.09375 -8.8125 8.5 -9 C 7.914062 -9.1875 7.316406 -9.378906 6.703125 -9.578125 C 6.097656 -9.773438 5.5 -10 4.90625 -10.25 C 4.320312 -10.507812 3.800781 -10.84375 3.34375 -11.25 C 2.882812 -11.664062 2.515625 -12.175781 2.234375 -12.78125 C 1.953125 -13.394531 1.8125 -14.15625 1.8125 -15.0625 C 1.8125 -15.789062 1.953125 -16.492188 2.234375 -17.171875 C 2.515625 -17.847656 2.921875 -18.445312 3.453125 -18.96875 C 3.992188 -19.488281 4.65625 -19.90625 5.4375 -20.21875 C 6.226562 -20.53125 7.132812 -20.6875 8.15625 -20.6875 C 9.300781 -20.6875 10.34375 -20.503906 11.28125 -20.140625 C 12.21875 -19.785156 13.039062 -19.265625 13.75 -18.578125 Z M 13.078125 -17.265625 "/></g></g></g><g fill="#000000" fill-opacity="1"><g transform="translate(48.455332, 181.357092)"><g><path d="M 19.1875 -20.46875 L 19.1875 0 L 16.421875 0 L 16.421875 -9.3125 L 5.390625 -9.3125 L 5.390625 0 L 2.609375 0 L 2.609375 -20.46875 L 5.390625 -20.46875 L 5.390625 -11.34375 L 16.421875 -11.34375 L 16.421875 -20.46875 Z M 19.1875 -20.46875 "/></g></g></g><g fill="#000000" fill-opacity="1"><g transform="translate(74.631287, 181.357092)"><g><path d="M 13.484375 -7.59375 L 10.265625 -15.921875 C 10.171875 -16.171875 10.070312 -16.457031 9.96875 -16.78125 C 9.863281 -17.113281 9.765625 -17.46875 9.671875 -17.84375 C 9.472656 -17.070312 9.265625 -16.425781 9.046875 -15.90625 L 5.84375 -7.59375 Z M 19.25 0 L 17.109375 0 C 16.859375 0 16.65625 -0.0625 16.5 -0.1875 C 16.351562 -0.3125 16.242188 -0.46875 16.171875 -0.65625 L 14.25 -5.59375 L 5.0625 -5.59375 L 3.15625 -0.65625 C 3.101562 -0.488281 2.992188 -0.335938 2.828125 -0.203125 C 2.660156 -0.0664062 2.460938 0 2.234375 0 L 0.078125 0 L 8.265625 -20.46875 L 11.0625 -20.46875 Z M 19.25 0 "/></g></g></g><g fill="#000000" fill-opacity="1"><g transform="translate(98.336921, 181.357092)"><g><path d="M 23.90625 -20.46875 L 23.90625 0 L 21.484375 0 L 21.484375 -15.03125 C 21.484375 -15.238281 21.488281 -15.457031 21.5 -15.6875 C 21.507812 -15.914062 21.523438 -16.144531 21.546875 -16.375 L 14.53125 -3.578125 C 14.3125 -3.148438 13.976562 -2.9375 13.53125 -2.9375 L 13.125 -2.9375 C 12.675781 -2.9375 12.34375 -3.148438 12.125 -3.578125 L 4.953125 -16.4375 C 5.015625 -15.9375 5.046875 -15.46875 5.046875 -15.03125 L 5.046875 0 L 2.609375 0 L 2.609375 -20.46875 L 4.65625 -20.46875 C 4.90625 -20.46875 5.09375 -20.441406 5.21875 -20.390625 C 5.351562 -20.347656 5.484375 -20.21875 5.609375 -20 L 12.6875 -7.390625 C 12.800781 -7.171875 12.910156 -6.9375 13.015625 -6.6875 C 13.128906 -6.4375 13.234375 -6.179688 13.328125 -5.921875 C 13.421875 -6.179688 13.519531 -6.4375 13.625 -6.6875 C 13.726562 -6.9375 13.84375 -7.175781 13.96875 -7.40625 L 20.90625 -20 C 21.019531 -20.21875 21.144531 -20.347656 21.28125 -20.390625 C 21.425781 -20.441406 21.617188 -20.46875 21.859375 -20.46875 Z M 23.90625 -20.46875 "/></g></g></g><g fill="#000000" fill-opacity="1"><g transform="translate(129.225072, 181.357092)"><g><path d="M 5.390625 0 L 2.609375 0 L 2.609375 -20.46875 L 5.390625 -20.46875 Z M 5.390625 0 "/></g></g></g><g fill="#000000" fill-opacity="1"><g transform="translate(141.592884, 181.357092)"><g><path d="M 14.21875 -2.328125 L 14.21875 0 L 2.609375 0 L 2.609375 -20.46875 L 5.375 -20.46875 L 5.375 -2.328125 Z M 14.21875 -2.328125 "/></g></g></g><g fill="#000000" fill-opacity="1"><g transform="translate(160.629157, 181.357092)"><g><path d="M 12.1875 2.359375 L 12.1875 4.0625 L 0.921875 4.0625 L 0.921875 2.359375 Z M 12.1875 2.359375 "/></g></g></g><g fill="#000000" fill-opacity="1"><g transform="translate(178.108987, 181.357092)"><g><path d="M 13.484375 -7.59375 L 10.265625 -15.921875 C 10.171875 -16.171875 10.070312 -16.457031 9.96875 -16.78125 C 9.863281 -17.113281 9.765625 -17.46875 9.671875 -17.84375 C 9.472656 -17.070312 9.265625 -16.425781 9.046875 -15.90625 L 5.84375 -7.59375 Z M 19.25 0 L 17.109375 0 C 16.859375 0 16.65625 -0.0625 16.5 -0.1875 C 16.351562 -0.3125 16.242188 -0.46875 16.171875 -0.65625 L 14.25 -5.59375 L 5.0625 -5.59375 L 3.15625 -0.65625 C 3.101562 -0.488281 2.992188 -0.335938 2.828125 -0.203125 C 2.660156 -0.0664062 2.460938 0 2.234375 0 L 0.078125 0 L 8.265625 -20.46875 L 11.0625 -20.46875 Z M 19.25 0 "/></g></g></g><g fill="#000000" fill-opacity="1"><g transform="translate(201.81462, 181.357092)"><g><path d="M 14.21875 -2.328125 L 14.21875 0 L 2.609375 0 L 2.609375 -20.46875 L 5.375 -20.46875 L 5.375 -2.328125 Z M 14.21875 -2.328125 "/></g></g></g><g fill="#000000" fill-opacity="1"><g transform="translate(220.850893, 181.357092)"><g><path d="M 5.390625 0 L 2.609375 0 L 2.609375 -20.46875 L 5.390625 -20.46875 Z M 5.390625 0 "/></g></g></g><g fill="#000000" fill-opacity="1"><g transform="translate(233.218706, 181.357092)"><g><path d="M 16.265625 -19.4375 C 16.265625 -19.125 16.171875 -18.816406 15.984375 -18.515625 L 4.40625 -2.25 L 16.09375 -2.25 L 16.09375 0 L 0.75 0 L 0.75 -1.078125 C 0.75 -1.234375 0.773438 -1.378906 0.828125 -1.515625 C 0.878906 -1.648438 0.945312 -1.78125 1.03125 -1.90625 L 12.640625 -18.203125 L 1.296875 -18.203125 L 1.296875 -20.46875 L 16.265625 -20.46875 Z M 16.265625 -19.4375 "/></g></g></g><g fill="#000000" fill-opacity="1"><g transform="translate(254.782417, 181.357092)"><g><path d="M 13.484375 -7.59375 L 10.265625 -15.921875 C 10.171875 -16.171875 10.070312 -16.457031 9.96875 -16.78125 C 9.863281 -17.113281 9.765625 -17.46875 9.671875 -17.84375 C 9.472656 -17.070312 9.265625 -16.425781 9.046875 -15.90625 L 5.84375 -7.59375 Z M 19.25 0 L 17.109375 0 C 16.859375 0 16.65625 -0.0625 16.5 -0.1875 C 16.351562 -0.3125 16.242188 -0.46875 16.171875 -0.65625 L 14.25 -5.59375 L 5.0625 -5.59375 L 3.15625 -0.65625 C 3.101562 -0.488281 2.992188 -0.335938 2.828125 -0.203125 C 2.660156 -0.0664062 2.460938 0 2.234375 0 L 0.078125 0 L 8.265625 -20.46875 L 11.0625 -20.46875 Z M 19.25 0 "/></g></g></g><g fill="#000000" fill-opacity="1"><g transform="translate(278.48805, 181.357092)"><g><path d="M 20.34375 -10.21875 C 20.34375 -8.6875 20.097656 -7.289062 19.609375 -6.03125 C 19.128906 -4.78125 18.445312 -3.707031 17.5625 -2.8125 C 16.675781 -1.914062 15.613281 -1.222656 14.375 -0.734375 C 13.132812 -0.242188 11.757812 0 10.25 0 L 2.609375 0 L 2.609375 -20.46875 L 10.25 -20.46875 C 11.757812 -20.46875 13.132812 -20.222656 14.375 -19.734375 C 15.613281 -19.242188 16.675781 -18.546875 17.5625 -17.640625 C 18.445312 -16.742188 19.128906 -15.664062 19.609375 -14.40625 C 20.097656 -13.15625 20.34375 -11.757812 20.34375 -10.21875 Z M 17.515625 -10.21875 C 17.515625 -11.476562 17.34375 -12.601562 17 -13.59375 C 16.65625 -14.582031 16.164062 -15.421875 15.53125 -16.109375 C 14.90625 -16.796875 14.144531 -17.316406 13.25 -17.671875 C 12.351562 -18.035156 11.351562 -18.21875 10.25 -18.21875 L 5.390625 -18.21875 L 5.390625 -2.234375 L 10.25 -2.234375 C 11.351562 -2.234375 12.351562 -2.414062 13.25 -2.78125 C 14.144531 -3.144531 14.90625 -3.664062 15.53125 -4.34375 C 16.164062 -5.03125 16.65625 -5.867188 17 -6.859375 C 17.34375 -7.847656 17.515625 -8.96875 17.515625 -10.21875 Z M 17.515625 -10.21875 "/></g></g></g><g fill="#000000" fill-opacity="1"><g transform="translate(304.578335, 181.357092)"><g><path d="M 13.484375 -7.59375 L 10.265625 -15.921875 C 10.171875 -16.171875 10.070312 -16.457031 9.96875 -16.78125 C 9.863281 -17.113281 9.765625 -17.46875 9.671875 -17.84375 C 9.472656 -17.070312 9.265625 -16.425781 9.046875 -15.90625 L 5.84375 -7.59375 Z M 19.25 0 L 17.109375 0 C 16.859375 0 16.65625 -0.0625 16.5 -0.1875 C 16.351562 -0.3125 16.242188 -0.46875 16.171875 -0.65625 L 14.25 -5.59375 L 5.0625 -5.59375 L 3.15625 -0.65625 C 3.101562 -0.488281 2.992188 -0.335938 2.828125 -0.203125 C 2.660156 -0.0664062 2.460938 0 2.234375 0 L 0.078125 0 L 8.265625 -20.46875 L 11.0625 -20.46875 Z M 19.25 0 "/></g></g></g></svg>