<svg xmlns="http://www.w3.org/2000/svg" xmlns:xlink="http://www.w3.org/1999/xlink" width="500" zoomAndPan="magnify" viewBox="0 0 375 374.999991" height="500" preserveAspectRatio="xMidYMid meet" version="1.0"><defs><g/></defs><g fill="#000000" fill-opacity="1"><g transform="translate(23.729741, 157.539124)"><g><path d="M 27.734375 -36.609375 C 27.554688 -36.304688 27.359375 -36.078125 27.140625 -35.921875 C 26.929688 -35.773438 26.675781 -35.703125 26.375 -35.703125 C 26.03125 -35.703125 25.625 -35.875 25.15625 -36.21875 C 24.695312 -36.5625 24.117188 -36.9375 23.421875 -37.34375 C 22.722656 -37.757812 21.882812 -38.140625 20.90625 -38.484375 C 19.925781 -38.828125 18.738281 -39 17.34375 -39 C 16.039062 -39 14.890625 -38.820312 13.890625 -38.46875 C 12.890625 -38.113281 12.050781 -37.632812 11.375 -37.03125 C 10.695312 -36.425781 10.1875 -35.710938 9.84375 -34.890625 C 9.5 -34.078125 9.328125 -33.195312 9.328125 -32.25 C 9.328125 -31.039062 9.625 -30.035156 10.21875 -29.234375 C 10.8125 -28.441406 11.597656 -27.757812 12.578125 -27.1875 C 13.554688 -26.625 14.664062 -26.132812 15.90625 -25.71875 C 17.15625 -25.3125 18.429688 -24.882812 19.734375 -24.4375 C 21.035156 -23.988281 22.304688 -23.488281 23.546875 -22.9375 C 24.785156 -22.382812 25.894531 -21.679688 26.875 -20.828125 C 27.851562 -19.984375 28.640625 -18.945312 29.234375 -17.71875 C 29.828125 -16.488281 30.125 -14.972656 30.125 -13.171875 C 30.125 -11.273438 29.800781 -9.492188 29.15625 -7.828125 C 28.507812 -6.160156 27.566406 -4.710938 26.328125 -3.484375 C 25.085938 -2.253906 23.5625 -1.285156 21.75 -0.578125 C 19.945312 0.128906 17.894531 0.484375 15.59375 0.484375 C 12.769531 0.484375 10.207031 -0.0234375 7.90625 -1.046875 C 5.601562 -2.066406 3.632812 -3.441406 2 -5.171875 L 3.6875 -7.96875 C 3.851562 -8.1875 4.050781 -8.367188 4.28125 -8.515625 C 4.519531 -8.671875 4.78125 -8.75 5.0625 -8.75 C 5.320312 -8.75 5.617188 -8.640625 5.953125 -8.421875 C 6.285156 -8.210938 6.660156 -7.945312 7.078125 -7.625 C 7.503906 -7.300781 7.988281 -6.945312 8.53125 -6.5625 C 9.082031 -6.1875 9.707031 -5.835938 10.40625 -5.515625 C 11.101562 -5.191406 11.894531 -4.921875 12.78125 -4.703125 C 13.664062 -4.492188 14.664062 -4.390625 15.78125 -4.390625 C 17.164062 -4.390625 18.40625 -4.582031 19.5 -4.96875 C 20.59375 -5.351562 21.515625 -5.890625 22.265625 -6.578125 C 23.023438 -7.273438 23.609375 -8.109375 24.015625 -9.078125 C 24.421875 -10.046875 24.625 -11.128906 24.625 -12.328125 C 24.625 -13.640625 24.320312 -14.710938 23.71875 -15.546875 C 23.125 -16.390625 22.34375 -17.09375 21.375 -17.65625 C 20.40625 -18.21875 19.296875 -18.695312 18.046875 -19.09375 C 16.796875 -19.488281 15.523438 -19.890625 14.234375 -20.296875 C 12.941406 -20.710938 11.671875 -21.191406 10.421875 -21.734375 C 9.171875 -22.285156 8.054688 -22.992188 7.078125 -23.859375 C 6.109375 -24.722656 5.328125 -25.804688 4.734375 -27.109375 C 4.140625 -28.410156 3.84375 -30.023438 3.84375 -31.953125 C 3.84375 -33.484375 4.140625 -34.960938 4.734375 -36.390625 C 5.328125 -37.828125 6.191406 -39.097656 7.328125 -40.203125 C 8.472656 -41.316406 9.878906 -42.207031 11.546875 -42.875 C 13.210938 -43.539062 15.128906 -43.875 17.296875 -43.875 C 19.710938 -43.875 21.914062 -43.488281 23.90625 -42.71875 C 25.894531 -41.957031 27.644531 -40.847656 29.15625 -39.390625 Z M 27.734375 -36.609375 "/></g></g></g><g fill="#000000" fill-opacity="1"><g transform="translate(65.852136, 157.539124)"><g><path d="M 40.703125 -43.390625 L 40.703125 0 L 34.828125 0 L 34.828125 -19.75 L 11.421875 -19.75 L 11.421875 0 L 5.546875 0 L 5.546875 -43.390625 L 11.421875 -43.390625 L 11.421875 -24.046875 L 34.828125 -24.046875 L 34.828125 -43.390625 Z M 40.703125 -43.390625 "/></g></g></g><g fill="#000000" fill-opacity="1"><g transform="translate(121.358839, 157.539124)"><g><path d="M 28.578125 -16.109375 L 21.765625 -33.765625 C 21.566406 -34.285156 21.351562 -34.894531 21.125 -35.59375 C 20.90625 -36.289062 20.695312 -37.035156 20.5 -37.828125 C 20.070312 -36.191406 19.640625 -34.828125 19.203125 -33.734375 L 12.390625 -16.109375 Z M 40.8125 0 L 36.28125 0 C 35.75 0 35.320312 -0.128906 35 -0.390625 C 34.675781 -0.648438 34.4375 -0.984375 34.28125 -1.390625 L 30.21875 -11.875 L 10.75 -11.875 L 6.6875 -1.390625 C 6.570312 -1.023438 6.34375 -0.703125 6 -0.421875 C 5.65625 -0.140625 5.226562 0 4.71875 0 L 0.1875 0 L 17.53125 -43.390625 L 23.46875 -43.390625 Z M 40.8125 0 "/></g></g></g><g fill="#000000" fill-opacity="1"><g transform="translate(171.626883, 157.539124)"><g><path d="M 50.6875 -43.390625 L 50.6875 0 L 45.546875 0 L 45.546875 -31.890625 C 45.546875 -32.304688 45.5625 -32.753906 45.59375 -33.234375 C 45.625 -33.722656 45.65625 -34.222656 45.6875 -34.734375 L 30.796875 -7.59375 C 30.328125 -6.6875 29.617188 -6.234375 28.671875 -6.234375 L 27.828125 -6.234375 C 26.878906 -6.234375 26.171875 -6.6875 25.703125 -7.59375 L 10.5 -34.859375 C 10.625 -33.785156 10.6875 -32.796875 10.6875 -31.890625 L 10.6875 0 L 5.546875 0 L 5.546875 -43.390625 L 9.875 -43.390625 C 10.394531 -43.390625 10.796875 -43.335938 11.078125 -43.234375 C 11.359375 -43.140625 11.632812 -42.859375 11.90625 -42.390625 L 26.890625 -15.6875 C 27.128906 -15.195312 27.363281 -14.691406 27.59375 -14.171875 C 27.832031 -13.648438 28.050781 -13.113281 28.25 -12.5625 C 28.457031 -13.113281 28.671875 -13.65625 28.890625 -14.1875 C 29.109375 -14.71875 29.347656 -15.226562 29.609375 -15.71875 L 44.328125 -42.390625 C 44.566406 -42.859375 44.832031 -43.140625 45.125 -43.234375 C 45.425781 -43.335938 45.835938 -43.390625 46.359375 -43.390625 Z M 50.6875 -43.390625 "/></g></g></g><g fill="#000000" fill-opacity="1"><g transform="translate(237.126383, 157.539124)"><g><path d="M 11.421875 0 L 5.546875 0 L 5.546875 -43.390625 L 11.421875 -43.390625 Z M 11.421875 0 "/></g></g></g><g fill="#000000" fill-opacity="1"><g transform="translate(263.351135, 157.539124)"><g><path d="M 30.15625 -4.9375 L 30.15625 0 L 5.546875 0 L 5.546875 -43.390625 L 11.390625 -43.390625 L 11.390625 -4.9375 Z M 30.15625 -4.9375 "/></g></g></g><g fill="#000000" fill-opacity="1"><g transform="translate(23.729741, 242.289118)"><g><path d="M 28.578125 -16.109375 L 21.765625 -33.765625 C 21.566406 -34.285156 21.351562 -34.894531 21.125 -35.59375 C 20.90625 -36.289062 20.695312 -37.035156 20.5 -37.828125 C 20.070312 -36.191406 19.640625 -34.828125 19.203125 -33.734375 L 12.390625 -16.109375 Z M 40.8125 0 L 36.28125 0 C 35.75 0 35.320312 -0.128906 35 -0.390625 C 34.675781 -0.648438 34.4375 -0.984375 34.28125 -1.390625 L 30.21875 -11.875 L 10.75 -11.875 L 6.6875 -1.390625 C 6.570312 -1.023438 6.34375 -0.703125 6 -0.421875 C 5.65625 -0.140625 5.226562 0 4.71875 0 L 0.1875 0 L 17.53125 -43.390625 L 23.46875 -43.390625 Z M 40.8125 0 "/></g></g></g><g fill="#000000" fill-opacity="1"><g transform="translate(73.997785, 242.289118)"><g><path d="M 30.15625 -4.9375 L 30.15625 0 L 5.546875 0 L 5.546875 -43.390625 L 11.390625 -43.390625 L 11.390625 -4.9375 Z M 30.15625 -4.9375 "/></g></g></g><g fill="#000000" fill-opacity="1"><g transform="translate(114.363864, 242.289118)"><g><path d="M 11.421875 0 L 5.546875 0 L 5.546875 -43.390625 L 11.421875 -43.390625 Z M 11.421875 0 "/></g></g></g><g fill="#000000" fill-opacity="1"><g transform="translate(140.588605, 242.289118)"><g><path d="M 34.484375 -41.21875 C 34.484375 -40.550781 34.285156 -39.90625 33.890625 -39.28125 L 9.328125 -4.78125 L 34.125 -4.78125 L 34.125 0 L 1.609375 0 L 1.609375 -2.296875 C 1.609375 -2.617188 1.660156 -2.921875 1.765625 -3.203125 C 1.878906 -3.492188 2.019531 -3.769531 2.1875 -4.03125 L 26.796875 -38.609375 L 2.75 -38.609375 L 2.75 -43.390625 L 34.484375 -43.390625 Z M 34.484375 -41.21875 "/></g></g></g><g fill="#000000" fill-opacity="1"><g transform="translate(186.314466, 242.289118)"><g><path d="M 28.578125 -16.109375 L 21.765625 -33.765625 C 21.566406 -34.285156 21.351562 -34.894531 21.125 -35.59375 C 20.90625 -36.289062 20.695312 -37.035156 20.5 -37.828125 C 20.070312 -36.191406 19.640625 -34.828125 19.203125 -33.734375 L 12.390625 -16.109375 Z M 40.8125 0 L 36.28125 0 C 35.75 0 35.320312 -0.128906 35 -0.390625 C 34.675781 -0.648438 34.4375 -0.984375 34.28125 -1.390625 L 30.21875 -11.875 L 10.75 -11.875 L 6.6875 -1.390625 C 6.570312 -1.023438 6.34375 -0.703125 6 -0.421875 C 5.65625 -0.140625 5.226562 0 4.71875 0 L 0.1875 0 L 17.53125 -43.390625 L 23.46875 -43.390625 Z M 40.8125 0 "/></g></g></g><g fill="#000000" fill-opacity="1"><g transform="translate(236.58251, 242.289118)"><g><path d="M 43.15625 -21.6875 C 43.15625 -18.4375 42.640625 -15.476562 41.609375 -12.8125 C 40.578125 -10.144531 39.125 -7.863281 37.25 -5.96875 C 35.375 -4.070312 33.117188 -2.601562 30.484375 -1.5625 C 27.847656 -0.519531 24.929688 0 21.734375 0 L 5.546875 0 L 5.546875 -43.390625 L 21.734375 -43.390625 C 24.929688 -43.390625 27.847656 -42.867188 30.484375 -41.828125 C 33.117188 -40.796875 35.375 -39.320312 37.25 -37.40625 C 39.125 -35.5 40.578125 -33.210938 41.609375 -30.546875 C 42.640625 -27.890625 43.15625 -24.9375 43.15625 -21.6875 Z M 37.125 -21.6875 C 37.125 -24.34375 36.757812 -26.722656 36.03125 -28.828125 C 35.300781 -30.929688 34.269531 -32.707031 32.9375 -34.15625 C 31.613281 -35.613281 30 -36.722656 28.09375 -37.484375 C 26.195312 -38.253906 24.078125 -38.640625 21.734375 -38.640625 L 11.421875 -38.640625 L 11.421875 -4.75 L 21.734375 -4.75 C 24.078125 -4.75 26.195312 -5.132812 28.09375 -5.90625 C 30 -6.675781 31.613281 -7.78125 32.9375 -9.21875 C 34.269531 -10.664062 35.300781 -12.4375 36.03125 -14.53125 C 36.757812 -16.632812 37.125 -19.019531 37.125 -21.6875 Z M 37.125 -21.6875 "/></g></g></g><g fill="#000000" fill-opacity="1"><g transform="translate(291.907526, 242.289118)"><g><path d="M 28.578125 -16.109375 L 21.765625 -33.765625 C 21.566406 -34.285156 21.351562 -34.894531 21.125 -35.59375 C 20.90625 -36.289062 20.695312 -37.035156 20.5 -37.828125 C 20.070312 -36.191406 19.640625 -34.828125 19.203125 -33.734375 L 12.390625 -16.109375 Z M 40.8125 0 L 36.28125 0 C 35.75 0 35.320312 -0.128906 35 -0.390625 C 34.675781 -0.648438 34.4375 -0.984375 34.28125 -1.390625 L 30.21875 -11.875 L 10.75 -11.875 L 6.6875 -1.390625 C 6.570312 -1.023438 6.34375 -0.703125 6 -0.421875 C 5.65625 -0.140625 5.226562 0 4.71875 0 L 0.1875 0 L 17.53125 -43.390625 L 23.46875 -43.390625 Z M 40.8125 0 "/></g></g></g></svg>