<svg xmlns="http://www.w3.org/2000/svg" xmlns:xlink="http://www.w3.org/1999/xlink" width="500" zoomAndPan="magnify" viewBox="0 0 375 374.999991" height="500" preserveAspectRatio="xMidYMid meet" version="1.0"><defs><g/></defs><g fill="#000000" fill-opacity="1"><g transform="translate(19.030931, 227.748119)"><g><path d="M 42.570312 -64.566406 C 39.828125 -66.433594 33.300781 -64.183594 22.984375 -57.765625 C 7.679688 -48.332031 0.164062 -40.816406 0.4375 -35.21875 C 0.933594 -30.28125 6.855469 -27.8125 18.214844 -27.8125 C 23.207031 -27.8125 26.714844 -27.320312 28.636719 -26.277344 C 30.554688 -25.234375 31.214844 -23.753906 30.664062 -21.832031 C 30.0625 -19.859375 28.527344 -17.5 26.058594 -14.8125 C 22.4375 -10.917969 18.871094 -8.0625 15.414062 -6.253906 C 11.960938 -4.445312 9.050781 -3.511719 6.746094 -3.402344 C 4.445312 -3.292969 3.238281 -3.785156 3.070312 -4.882812 C 3.070312 -6.363281 4.71875 -8.394531 7.953125 -10.972656 C 8.394531 -11.355469 8.613281 -11.738281 8.613281 -12.125 C 8.558594 -12.507812 8.394531 -12.726562 8.0625 -12.890625 C 7.734375 -13 7.351562 -12.890625 6.855469 -12.617188 C 4.277344 -10.585938 2.632812 -8.832031 1.808594 -7.460938 C 0.988281 -6.089844 0.601562 -4.992188 0.769531 -4.167969 C 0.988281 -2.25 2.46875 -1.207031 5.265625 -1.152344 C 8.0625 -1.042969 11.464844 -2.03125 15.523438 -4.058594 C 19.53125 -6.089844 23.589844 -9.269531 27.648438 -13.605469 C 31.105469 -17.5 32.914062 -20.679688 33.132812 -23.09375 C 33.300781 -25.507812 32.148438 -27.265625 29.625 -28.417969 C 27.046875 -29.515625 23.480469 -30.0625 18.816406 -30.0625 C 13.824219 -30.0625 9.929688 -30.554688 7.132812 -31.597656 C 4.332031 -32.640625 2.90625 -34.066406 2.742188 -35.933594 C 2.578125 -36.753906 3.015625 -38.015625 4.003906 -39.71875 C 4.9375 -41.417969 6.96875 -43.558594 10.039062 -46.246094 C 13.054688 -48.933594 17.664062 -52.171875 23.808594 -55.957031 C 29.457031 -59.410156 33.628906 -61.550781 36.207031 -62.320312 C 38.785156 -63.085938 40.375 -63.195312 40.980469 -62.59375 C 41.910156 -61.824219 42.242188 -60.453125 41.855469 -58.480469 C 41.472656 -56.449219 40.925781 -54.472656 40.265625 -52.554688 L 39.71875 -50.742188 C 39.609375 -50.25 39.71875 -49.921875 40.046875 -49.757812 C 40.320312 -49.59375 40.703125 -49.59375 41.089844 -49.757812 C 41.472656 -49.921875 41.746094 -50.195312 41.910156 -50.6875 C 42.132812 -51.347656 42.351562 -52.003906 42.570312 -52.71875 C 43.339844 -55.023438 43.886719 -57.328125 44.214844 -59.578125 C 44.546875 -61.824219 43.996094 -63.527344 42.570312 -64.566406 Z M 42.570312 -64.566406 "/></g></g></g><g fill="#000000" fill-opacity="1"><g transform="translate(59.839453, 227.748119)"><g><path d="M 25.234375 -27.320312 L 25.070312 -27.210938 C 23.316406 -25.894531 21.558594 -24.742188 19.859375 -23.699219 C 18.101562 -22.65625 16.402344 -22.164062 14.8125 -22.164062 C 14.097656 -22.164062 13.605469 -22.382812 13.441406 -22.765625 C 13.222656 -23.148438 13.109375 -23.917969 13.109375 -24.960938 C 13.164062 -25.5625 13.109375 -26.167969 13.054688 -26.824219 C 12.945312 -27.429688 12.671875 -27.976562 12.289062 -28.417969 C 11.902344 -28.855469 11.191406 -29.074219 10.257812 -29.074219 C 8.886719 -29.074219 7.40625 -28.527344 5.816406 -27.484375 C 4.222656 -26.386719 2.632812 -25.070312 1.042969 -23.535156 C 1.535156 -25.5625 2.25 -28.417969 3.183594 -31.984375 C 4.113281 -35.546875 5.101562 -39.167969 6.089844 -42.789062 C 6.914062 -45.808594 7.679688 -48.824219 8.503906 -51.730469 C 8.613281 -52.226562 8.503906 -52.554688 8.230469 -52.71875 C 7.898438 -52.882812 7.515625 -52.882812 7.132812 -52.71875 C 6.746094 -52.554688 6.472656 -52.226562 6.308594 -51.730469 C 5.484375 -48.824219 4.664062 -45.808594 3.839844 -42.789062 C 1.753906 -35.054688 0.328125 -29.570312 -0.492188 -26.386719 C -1.316406 -23.207031 -1.644531 -21.339844 -1.589844 -20.738281 C -1.535156 -20.242188 -1.261719 -20.023438 -0.769531 -19.96875 C -0.273438 -19.914062 0.164062 -20.078125 0.601562 -20.460938 C 0.988281 -20.847656 1.425781 -21.175781 1.863281 -21.558594 C 3.347656 -22.929688 4.773438 -24.191406 6.144531 -25.289062 C 7.515625 -26.332031 8.667969 -26.878906 9.65625 -26.878906 C 10.148438 -26.878906 10.476562 -26.714844 10.640625 -26.386719 C 10.808594 -26.003906 10.863281 -25.34375 10.808594 -24.355469 C 10.808594 -23.753906 10.863281 -23.09375 10.972656 -22.4375 C 11.082031 -21.722656 11.355469 -21.175781 11.847656 -20.679688 C 12.34375 -20.1875 13.109375 -19.96875 14.261719 -19.96875 C 16.238281 -19.96875 18.269531 -20.570312 20.296875 -21.722656 C 22.328125 -22.875 24.300781 -24.191406 26.277344 -25.671875 C 26.714844 -26.003906 26.933594 -26.386719 26.933594 -26.769531 C 26.878906 -27.15625 26.714844 -27.429688 26.441406 -27.59375 C 26.113281 -27.757812 25.730469 -27.648438 25.234375 -27.320312 Z M 25.234375 -27.320312 "/></g></g></g><g fill="#000000" fill-opacity="1"><g transform="translate(84.574806, 227.748119)"><g><path d="M 18.871094 -27.101562 C 15.03125 -23.644531 11.960938 -22 9.65625 -22.21875 C 8.339844 -22.382812 7.679688 -23.039062 7.679688 -24.136719 C 7.625 -25.179688 7.84375 -26.441406 8.285156 -27.8125 L 8.394531 -28.140625 C 8.449219 -28.636719 8.394531 -28.964844 8.117188 -29.128906 C 7.84375 -29.292969 7.515625 -29.292969 7.132812 -29.183594 C 6.746094 -29.074219 6.472656 -28.800781 6.253906 -28.363281 C 5.320312 -26.660156 4.5 -25.34375 3.839844 -24.46875 C 3.183594 -23.535156 2.6875 -22.929688 2.304688 -22.65625 C 1.921875 -22.328125 1.644531 -22.164062 1.535156 -22.164062 C 1.480469 -22.164062 1.371094 -22.164062 1.316406 -22.21875 C 1.207031 -22.21875 1.097656 -22.273438 1.042969 -22.382812 C 0.988281 -22.492188 0.933594 -22.65625 0.933594 -22.929688 C 0.933594 -23.480469 1.097656 -24.082031 1.425781 -24.796875 C 1.699219 -25.453125 2.03125 -26.003906 2.414062 -26.441406 C 2.796875 -26.878906 3.070312 -26.992188 3.347656 -26.769531 C 3.621094 -26.496094 4.003906 -26.441406 4.386719 -26.605469 C 4.773438 -26.769531 5.101562 -27.046875 5.320312 -27.429688 C 5.484375 -27.8125 5.484375 -28.140625 5.210938 -28.472656 C 4.386719 -29.292969 3.457031 -29.402344 2.414062 -28.855469 C 1.371094 -28.308594 0.492188 -27.429688 -0.21875 -26.167969 C -0.988281 -24.90625 -1.371094 -23.589844 -1.371094 -22.273438 C -1.261719 -20.738281 -0.492188 -19.96875 0.933594 -19.96875 C 2.304688 -19.96875 3.785156 -21.066406 5.375 -23.207031 C 5.539062 -22.054688 5.980469 -21.230469 6.691406 -20.738281 C 7.40625 -20.242188 8.339844 -19.96875 9.546875 -19.96875 C 12.453125 -19.96875 16.019531 -21.886719 20.1875 -25.671875 C 20.570312 -26.058594 20.738281 -26.441406 20.679688 -26.824219 C 20.570312 -27.15625 20.351562 -27.375 20.023438 -27.484375 C 19.640625 -27.59375 19.253906 -27.484375 18.871094 -27.101562 Z M 18.871094 -27.101562 "/></g></g></g><g fill="#000000" fill-opacity="1"><g transform="translate(103.220996, 227.748119)"><g><path d="M 32.203125 -26.992188 C 32.039062 -26.824219 31.816406 -26.714844 31.597656 -26.550781 C 30.335938 -25.5625 28.964844 -24.578125 27.429688 -23.644531 C 25.839844 -22.65625 24.46875 -22.164062 23.207031 -22.164062 C 22.382812 -22.164062 21.886719 -22.382812 21.667969 -22.875 C 21.449219 -23.316406 21.339844 -24.082031 21.339844 -25.125 C 21.285156 -25.730469 21.230469 -26.332031 21.175781 -26.933594 C 21.066406 -27.539062 20.847656 -28.03125 20.460938 -28.472656 C 20.078125 -28.855469 19.476562 -29.074219 18.652344 -29.074219 C 17.773438 -29.074219 16.953125 -28.800781 16.183594 -28.253906 C 15.359375 -27.648438 14.648438 -26.992188 13.988281 -26.167969 C 13.277344 -25.34375 12.671875 -24.578125 12.070312 -23.753906 C 11.847656 -23.480469 11.628906 -23.148438 11.355469 -22.820312 C 11.410156 -23.09375 11.464844 -23.371094 11.519531 -23.644531 C 11.683594 -24.300781 11.847656 -25.070312 11.902344 -25.894531 C 11.960938 -26.714844 11.847656 -27.484375 11.519531 -28.140625 C 11.136719 -28.746094 10.367188 -29.074219 9.214844 -29.074219 C 7.898438 -29.074219 6.636719 -28.582031 5.484375 -27.648438 C 4.277344 -26.660156 3.070312 -25.507812 1.921875 -24.246094 L 1.152344 -23.480469 C 1.425781 -24.523438 1.699219 -25.507812 1.976562 -26.496094 C 2.140625 -27.046875 2.304688 -27.539062 2.414062 -27.976562 C 2.523438 -28.472656 2.414062 -28.800781 2.140625 -28.964844 C 1.808594 -29.128906 1.425781 -29.128906 1.042969 -28.964844 C 0.660156 -28.800781 0.382812 -28.472656 0.21875 -27.976562 C -0.0546875 -27.046875 -0.273438 -26.222656 -0.492188 -25.453125 C -1.097656 -23.425781 -1.425781 -21.886719 -1.480469 -20.957031 C -1.425781 -20.351562 -1.152344 -20.023438 -0.546875 -19.96875 C 0 -19.914062 0.546875 -20.132812 1.042969 -20.625 C 1.425781 -21.011719 1.808594 -21.449219 2.195312 -21.832031 C 3.457031 -23.261719 4.664062 -24.46875 5.761719 -25.453125 C 6.800781 -26.386719 7.789062 -26.878906 8.613281 -26.878906 C 9.214844 -26.878906 9.546875 -26.660156 9.65625 -26.167969 C 9.710938 -25.671875 9.601562 -24.796875 9.324219 -23.535156 C 9.160156 -22.984375 9.105469 -22.4375 9.050781 -21.886719 C 8.996094 -21.339844 9.050781 -20.902344 9.214844 -20.515625 C 9.378906 -20.132812 9.820312 -19.96875 10.476562 -19.96875 C 11.082031 -19.96875 11.628906 -20.242188 12.125 -20.738281 C 12.617188 -21.230469 13.222656 -21.941406 13.824219 -22.820312 C 14.429688 -23.699219 15.140625 -24.578125 15.964844 -25.507812 C 16.730469 -26.441406 17.445312 -26.878906 18.046875 -26.878906 C 18.433594 -26.878906 18.707031 -26.714844 18.816406 -26.386719 C 18.925781 -26.003906 18.980469 -25.398438 19.035156 -24.523438 C 19.035156 -23.863281 19.089844 -23.207031 19.253906 -22.492188 C 19.363281 -21.777344 19.695312 -21.230469 20.1875 -20.738281 C 20.679688 -20.242188 21.449219 -19.96875 22.601562 -19.96875 C 24.300781 -19.96875 26.003906 -20.515625 27.8125 -21.613281 C 29.570312 -22.65625 31.214844 -23.808594 32.75 -24.960938 C 32.914062 -25.125 33.078125 -25.234375 33.246094 -25.34375 C 33.683594 -25.730469 33.902344 -26.058594 33.902344 -26.441406 C 33.847656 -26.824219 33.683594 -27.046875 33.410156 -27.210938 C 33.078125 -27.375 32.695312 -27.265625 32.203125 -26.992188 Z M 32.203125 -26.992188 "/></g></g></g><g fill="#000000" fill-opacity="1"><g transform="translate(135.142645, 227.748119)"><g><path d="M 2.195312 -30.71875 L 2.085938 -30.71875 C 1.808594 -30.777344 1.589844 -30.886719 1.480469 -31.160156 C 1.316406 -31.378906 1.316406 -31.652344 1.425781 -31.925781 C 1.480469 -32.148438 1.535156 -32.367188 1.589844 -32.53125 L 1.644531 -32.53125 C 1.753906 -32.96875 1.921875 -33.464844 2.195312 -33.957031 C 2.359375 -34.230469 2.578125 -34.507812 2.851562 -34.671875 C 3.125 -34.835938 3.402344 -34.890625 3.675781 -34.835938 C 3.949219 -34.78125 4.167969 -34.617188 4.277344 -34.394531 C 4.386719 -34.121094 4.386719 -33.847656 4.222656 -33.574219 L 3.785156 -32.367188 L 3.566406 -31.707031 C 3.457031 -31.433594 3.292969 -31.160156 3.015625 -30.996094 C 2.742188 -30.832031 2.46875 -30.71875 2.195312 -30.71875 Z M 12.945312 -27.101562 C 9.160156 -23.644531 6.089844 -22 3.785156 -22.21875 C 2.632812 -22.382812 1.976562 -22.929688 1.863281 -23.972656 C 1.753906 -25.015625 1.921875 -26.277344 2.414062 -27.8125 C 2.523438 -28.417969 2.414062 -28.800781 2.140625 -28.964844 C 1.863281 -29.128906 1.480469 -29.128906 1.097656 -28.964844 C 0.660156 -28.800781 0.328125 -28.417969 0.164062 -27.8125 C -0.273438 -26.332031 -0.492188 -24.960938 -0.492188 -23.808594 C -0.492188 -22.65625 -0.164062 -21.722656 0.4375 -21.011719 C 1.042969 -20.296875 2.140625 -19.96875 3.675781 -19.96875 C 6.582031 -19.96875 10.148438 -21.886719 14.261719 -25.671875 C 14.648438 -26.058594 14.8125 -26.441406 14.757812 -26.824219 C 14.703125 -27.15625 14.484375 -27.375 14.152344 -27.484375 C 13.769531 -27.59375 13.386719 -27.484375 12.945312 -27.101562 Z M 12.945312 -27.101562 "/></g></g></g><g fill="#000000" fill-opacity="1"><g transform="translate(147.864251, 227.748119)"><g><path d="M 15.085938 -27.210938 C 12.726562 -25.289062 10.808594 -23.972656 9.4375 -23.261719 C 8.0625 -22.546875 6.691406 -22.164062 5.429688 -22.164062 C 3.675781 -22.164062 2.632812 -22.984375 2.359375 -24.632812 C 2.085938 -26.222656 2.25 -28.582031 2.960938 -31.597656 C 3.621094 -34.617188 4.554688 -38.292969 5.707031 -42.515625 C 6.144531 -44.105469 6.582031 -45.75 7.078125 -47.507812 C 7.242188 -48.21875 7.460938 -48.933594 7.679688 -49.648438 L 8.230469 -51.730469 C 8.339844 -52.226562 8.230469 -52.609375 7.953125 -52.773438 C 7.625 -52.9375 7.242188 -52.9375 6.855469 -52.773438 C 6.472656 -52.609375 6.199219 -52.226562 6.035156 -51.730469 L 5.429688 -49.648438 C 5.265625 -48.933594 5.046875 -48.21875 4.882812 -47.507812 C 4.445312 -45.863281 4.003906 -44.269531 3.566406 -42.789062 C 2.195312 -37.796875 1.152344 -33.574219 0.4375 -30.226562 C -0.273438 -26.824219 -0.328125 -24.246094 0.273438 -22.546875 C 0.824219 -20.847656 2.359375 -19.96875 4.828125 -19.96875 C 6.636719 -19.96875 8.449219 -20.460938 10.148438 -21.394531 C 11.847656 -22.328125 13.878906 -23.753906 16.238281 -25.671875 C 16.675781 -26.058594 16.894531 -26.386719 16.839844 -26.769531 C 16.785156 -27.15625 16.566406 -27.375 16.238281 -27.539062 C 15.910156 -27.648438 15.523438 -27.539062 15.085938 -27.210938 Z M 15.085938 -27.210938 "/></g></g></g><g fill="#000000" fill-opacity="1"><g transform="translate(162.560719, 227.748119)"><g/></g></g><g fill="#000000" fill-opacity="1"><g transform="translate(190.53264, 227.748119)"><g><path d="M 17.390625 -26.386719 C 20.570312 -35.109375 23.808594 -42.132812 27.046875 -47.453125 C 30.28125 -52.773438 33.355469 -56.613281 36.316406 -58.972656 C 39.222656 -61.332031 41.855469 -62.484375 44.105469 -62.484375 C 47.125 -62.484375 48.878906 -59.246094 49.316406 -52.828125 C 49.757812 -46.410156 48.933594 -37.523438 46.847656 -26.222656 C 43.558594 -26.222656 40.210938 -26.222656 36.753906 -26.277344 C 29.238281 -26.386719 22.765625 -26.441406 17.390625 -26.386719 Z M 60.125 -26.167969 L 49.042969 -26.167969 C 49.921875 -30.832031 50.632812 -35.382812 51.128906 -39.9375 C 51.621094 -44.433594 51.839844 -48.550781 51.675781 -52.28125 C 51.511719 -56.011719 50.910156 -59.027344 49.867188 -61.277344 C 48.769531 -63.527344 47.070312 -64.679688 44.710938 -64.679688 C 39.664062 -64.679688 34.5625 -61.332031 29.457031 -54.640625 C 24.355469 -47.890625 19.585938 -38.511719 15.195312 -26.386719 C 7.132812 -26.332031 2.523438 -25.730469 1.261719 -24.523438 C 0.4375 -23.753906 0.109375 -22.929688 0.382812 -22 C 0.660156 -21.066406 1.097656 -20.351562 1.808594 -19.804688 C 2.195312 -19.53125 2.578125 -19.53125 2.960938 -19.75 C 3.347656 -19.96875 3.621094 -20.296875 3.785156 -20.679688 C 3.949219 -21.066406 3.839844 -21.394531 3.511719 -21.667969 C 3.347656 -21.832031 3.125 -22.054688 2.960938 -22.328125 C 2.796875 -22.601562 2.632812 -22.875 2.578125 -23.09375 C 4.003906 -23.753906 7.953125 -24.082031 14.429688 -24.136719 C 12.726562 -19.253906 11.136719 -14.042969 9.601562 -8.449219 C 9.546875 -7.953125 9.65625 -7.679688 9.984375 -7.515625 C 10.257812 -7.351562 10.640625 -7.351562 11.027344 -7.515625 C 11.410156 -7.679688 11.683594 -7.953125 11.847656 -8.449219 C 13.386719 -14.207031 14.976562 -19.476562 16.621094 -24.191406 C 21.613281 -24.246094 27.59375 -24.191406 34.507812 -24.082031 C 38.179688 -24.027344 42.132812 -24.027344 46.410156 -23.972656 C 45.148438 -17.335938 43.449219 -9.984375 41.308594 -2.03125 C 41.199219 -1.535156 41.308594 -1.261719 41.636719 -1.097656 C 41.910156 -0.933594 42.296875 -0.933594 42.679688 -1.097656 C 43.0625 -1.261719 43.339844 -1.535156 43.503906 -2.03125 C 44.984375 -7.242188 46.683594 -14.59375 48.605469 -23.972656 C 52.0625 -23.917969 55.734375 -23.917969 59.519531 -23.917969 C 60.015625 -23.917969 60.34375 -24.136719 60.617188 -24.523438 C 60.894531 -24.90625 61.003906 -25.234375 60.949219 -25.617188 C 60.894531 -26.003906 60.617188 -26.167969 60.125 -26.167969 Z M 60.125 -26.167969 "/></g></g></g><g fill="#000000" fill-opacity="1"><g transform="translate(256.410928, 227.748119)"><g><path d="M 15.085938 -27.210938 C 12.726562 -25.289062 10.808594 -23.972656 9.4375 -23.261719 C 8.0625 -22.546875 6.691406 -22.164062 5.429688 -22.164062 C 3.675781 -22.164062 2.632812 -22.984375 2.359375 -24.632812 C 2.085938 -26.222656 2.25 -28.582031 2.960938 -31.597656 C 3.621094 -34.617188 4.554688 -38.292969 5.707031 -42.515625 C 6.144531 -44.105469 6.582031 -45.75 7.078125 -47.507812 C 7.242188 -48.21875 7.460938 -48.933594 7.679688 -49.648438 L 8.230469 -51.730469 C 8.339844 -52.226562 8.230469 -52.609375 7.953125 -52.773438 C 7.625 -52.9375 7.242188 -52.9375 6.855469 -52.773438 C 6.472656 -52.609375 6.199219 -52.226562 6.035156 -51.730469 L 5.429688 -49.648438 C 5.265625 -48.933594 5.046875 -48.21875 4.882812 -47.507812 C 4.445312 -45.863281 4.003906 -44.269531 3.566406 -42.789062 C 2.195312 -37.796875 1.152344 -33.574219 0.4375 -30.226562 C -0.273438 -26.824219 -0.328125 -24.246094 0.273438 -22.546875 C 0.824219 -20.847656 2.359375 -19.96875 4.828125 -19.96875 C 6.636719 -19.96875 8.449219 -20.460938 10.148438 -21.394531 C 11.847656 -22.328125 13.878906 -23.753906 16.238281 -25.671875 C 16.675781 -26.058594 16.894531 -26.386719 16.839844 -26.769531 C 16.785156 -27.15625 16.566406 -27.375 16.238281 -27.539062 C 15.910156 -27.648438 15.523438 -27.539062 15.085938 -27.210938 Z M 15.085938 -27.210938 "/></g></g></g><g fill="#000000" fill-opacity="1"><g transform="translate(271.107407, 227.748119)"><g><path d="M 2.195312 -30.71875 L 2.085938 -30.71875 C 1.808594 -30.777344 1.589844 -30.886719 1.480469 -31.160156 C 1.316406 -31.378906 1.316406 -31.652344 1.425781 -31.925781 C 1.480469 -32.148438 1.535156 -32.367188 1.589844 -32.53125 L 1.644531 -32.53125 C 1.753906 -32.96875 1.921875 -33.464844 2.195312 -33.957031 C 2.359375 -34.230469 2.578125 -34.507812 2.851562 -34.671875 C 3.125 -34.835938 3.402344 -34.890625 3.675781 -34.835938 C 3.949219 -34.78125 4.167969 -34.617188 4.277344 -34.394531 C 4.386719 -34.121094 4.386719 -33.847656 4.222656 -33.574219 L 3.785156 -32.367188 L 3.566406 -31.707031 C 3.457031 -31.433594 3.292969 -31.160156 3.015625 -30.996094 C 2.742188 -30.832031 2.46875 -30.71875 2.195312 -30.71875 Z M 12.945312 -27.101562 C 9.160156 -23.644531 6.089844 -22 3.785156 -22.21875 C 2.632812 -22.382812 1.976562 -22.929688 1.863281 -23.972656 C 1.753906 -25.015625 1.921875 -26.277344 2.414062 -27.8125 C 2.523438 -28.417969 2.414062 -28.800781 2.140625 -28.964844 C 1.863281 -29.128906 1.480469 -29.128906 1.097656 -28.964844 C 0.660156 -28.800781 0.328125 -28.417969 0.164062 -27.8125 C -0.273438 -26.332031 -0.492188 -24.960938 -0.492188 -23.808594 C -0.492188 -22.65625 -0.164062 -21.722656 0.4375 -21.011719 C 1.042969 -20.296875 2.140625 -19.96875 3.675781 -19.96875 C 6.582031 -19.96875 10.148438 -21.886719 14.261719 -25.671875 C 14.648438 -26.058594 14.8125 -26.441406 14.757812 -26.824219 C 14.703125 -27.15625 14.484375 -27.375 14.152344 -27.484375 C 13.769531 -27.59375 13.386719 -27.484375 12.945312 -27.101562 Z M 12.945312 -27.101562 "/></g></g></g><g fill="#000000" fill-opacity="1"><g transform="translate(283.829025, 227.748119)"><g><path d="M 24.082031 -26.769531 C 22.820312 -25.289062 21.613281 -24.191406 20.570312 -23.535156 C 19.53125 -22.820312 18.378906 -22.4375 17.117188 -22.273438 C 15.855469 -22.109375 14.316406 -22 12.398438 -22 L 3.238281 -22 C 3.183594 -21.941406 3.125 -21.941406 3.070312 -21.941406 C 4.113281 -22.4375 5.101562 -22.875 6.144531 -23.316406 C 8.175781 -24.191406 10.53125 -25.234375 13.277344 -26.496094 C 13.550781 -26.660156 13.769531 -26.824219 13.933594 -27.046875 C 14.097656 -27.265625 14.207031 -27.484375 14.207031 -27.757812 C 14.261719 -28.03125 14.207031 -28.253906 14.042969 -28.417969 C 13.878906 -28.582031 13.550781 -28.691406 13.054688 -28.855469 C 12.507812 -28.964844 11.683594 -29.074219 10.585938 -29.183594 C 8.558594 -29.347656 6.472656 -29.347656 4.445312 -29.074219 C 2.359375 -28.800781 0.878906 -28.085938 -0.0546875 -26.878906 C -0.328125 -26.386719 -0.328125 -26.058594 -0.109375 -25.785156 C 0.0546875 -25.507812 0.382812 -25.34375 0.769531 -25.398438 C 1.152344 -25.398438 1.480469 -25.617188 1.808594 -26.058594 C 2.195312 -26.550781 3.238281 -26.824219 4.828125 -26.992188 C 6.417969 -27.101562 7.953125 -27.101562 9.546875 -26.992188 C 7.625 -26.167969 5.980469 -25.398438 4.609375 -24.796875 C 2.140625 -23.753906 0.4375 -22.984375 -0.492188 -22.492188 C -1.371094 -22 -1.808594 -21.449219 -1.753906 -20.847656 C -1.753906 -20.242188 -1.480469 -19.914062 -0.878906 -19.914062 C 0.273438 -19.914062 1.535156 -19.914062 2.90625 -19.96875 C 3.949219 -19.96875 5.265625 -19.96875 6.746094 -19.914062 L 11.960938 -19.914062 C 13.988281 -19.914062 15.746094 -20.023438 17.226562 -20.242188 C 18.707031 -20.40625 20.078125 -20.902344 21.394531 -21.722656 C 22.710938 -22.546875 24.136719 -23.863281 25.671875 -25.671875 C 26.058594 -26.113281 26.167969 -26.496094 26.003906 -26.824219 C 25.839844 -27.101562 25.617188 -27.320312 25.234375 -27.375 C 24.851562 -27.429688 24.46875 -27.210938 24.082031 -26.769531 Z M 24.082031 -26.769531 "/></g></g></g><g fill="#000000" fill-opacity="1"><g transform="translate(307.631795, 227.748119)"><g><path d="M 18.871094 -27.101562 C 15.03125 -23.644531 11.960938 -22 9.65625 -22.21875 C 8.339844 -22.382812 7.679688 -23.039062 7.679688 -24.136719 C 7.625 -25.179688 7.84375 -26.441406 8.285156 -27.8125 L 8.394531 -28.140625 C 8.449219 -28.636719 8.394531 -28.964844 8.117188 -29.128906 C 7.84375 -29.292969 7.515625 -29.292969 7.132812 -29.183594 C 6.746094 -29.074219 6.472656 -28.800781 6.253906 -28.363281 C 5.320312 -26.660156 4.5 -25.34375 3.839844 -24.46875 C 3.183594 -23.535156 2.6875 -22.929688 2.304688 -22.65625 C 1.921875 -22.328125 1.644531 -22.164062 1.535156 -22.164062 C 1.480469 -22.164062 1.371094 -22.164062 1.316406 -22.21875 C 1.207031 -22.21875 1.097656 -22.273438 1.042969 -22.382812 C 0.988281 -22.492188 0.933594 -22.65625 0.933594 -22.929688 C 0.933594 -23.480469 1.097656 -24.082031 1.425781 -24.796875 C 1.699219 -25.453125 2.03125 -26.003906 2.414062 -26.441406 C 2.796875 -26.878906 3.070312 -26.992188 3.347656 -26.769531 C 3.621094 -26.496094 4.003906 -26.441406 4.386719 -26.605469 C 4.773438 -26.769531 5.101562 -27.046875 5.320312 -27.429688 C 5.484375 -27.8125 5.484375 -28.140625 5.210938 -28.472656 C 4.386719 -29.292969 3.457031 -29.402344 2.414062 -28.855469 C 1.371094 -28.308594 0.492188 -27.429688 -0.21875 -26.167969 C -0.988281 -24.90625 -1.371094 -23.589844 -1.371094 -22.273438 C -1.261719 -20.738281 -0.492188 -19.96875 0.933594 -19.96875 C 2.304688 -19.96875 3.785156 -21.066406 5.375 -23.207031 C 5.539062 -22.054688 5.980469 -21.230469 6.691406 -20.738281 C 7.40625 -20.242188 8.339844 -19.96875 9.546875 -19.96875 C 12.453125 -19.96875 16.019531 -21.886719 20.1875 -25.671875 C 20.570312 -26.058594 20.738281 -26.441406 20.679688 -26.824219 C 20.570312 -27.15625 20.351562 -27.375 20.023438 -27.484375 C 19.640625 -27.59375 19.253906 -27.484375 18.871094 -27.101562 Z M 18.871094 -27.101562 "/></g></g></g><g fill="#000000" fill-opacity="1"><g transform="translate(326.277996, 227.748119)"><g><path d="M 22 -27.429688 C 20.1875 -25.730469 18.597656 -24.46875 17.171875 -23.535156 C 15.746094 -22.601562 14.371094 -22.164062 13.054688 -22.164062 C 11.574219 -22.164062 10.863281 -23.09375 10.863281 -24.960938 C 10.808594 -26.769531 11.191406 -29.183594 12.015625 -32.148438 C 12.78125 -35.109375 13.714844 -38.347656 14.8125 -41.855469 C 15.855469 -45.09375 16.785156 -48.273438 17.664062 -51.457031 C 17.828125 -52.0625 17.71875 -52.5 17.445312 -52.71875 C 17.171875 -52.9375 16.785156 -52.9375 16.402344 -52.71875 C 15.964844 -52.5 15.632812 -52.0625 15.46875 -51.457031 C 15.085938 -50.195312 14.429688 -48 13.386719 -44.929688 C 12.34375 -41.800781 11.082031 -38.511719 9.710938 -35.054688 C 8.339844 -31.542969 6.914062 -28.527344 5.429688 -26.003906 C 3.949219 -23.425781 2.6875 -22.164062 1.589844 -22.164062 C 1.371094 -22.164062 1.261719 -22.273438 1.207031 -22.546875 C 1.152344 -22.820312 1.097656 -23.039062 1.097656 -23.316406 C 1.152344 -23.644531 1.207031 -24.082031 1.371094 -24.578125 C 1.535156 -25.070312 1.699219 -25.5625 1.921875 -26.058594 C 2.085938 -26.496094 2.304688 -26.824219 2.578125 -26.992188 C 2.796875 -27.15625 3.015625 -27.101562 3.183594 -26.824219 C 3.457031 -26.441406 3.785156 -26.332031 4.167969 -26.441406 C 4.554688 -26.550781 4.882812 -26.769531 5.15625 -27.15625 C 5.429688 -27.484375 5.429688 -27.867188 5.265625 -28.253906 C 4.554688 -29.347656 3.730469 -29.734375 2.742188 -29.402344 C 1.699219 -29.074219 0.824219 -28.308594 0.0546875 -27.046875 C -0.714844 -25.785156 -1.152344 -24.300781 -1.207031 -22.710938 C -1.152344 -20.902344 -0.4375 -19.96875 0.988281 -19.96875 C 2.359375 -19.96875 3.675781 -20.738281 5.046875 -22.273438 C 6.363281 -23.808594 7.625 -25.785156 8.886719 -28.253906 C 8.613281 -26.878906 8.503906 -25.5625 8.558594 -24.300781 C 8.613281 -23.039062 8.886719 -22 9.492188 -21.175781 C 10.09375 -20.351562 11.082031 -19.96875 12.453125 -19.96875 C 14.429688 -19.96875 16.347656 -20.570312 18.15625 -21.832031 C 19.96875 -23.039062 21.722656 -24.410156 23.371094 -26.003906 C 23.753906 -26.386719 23.863281 -26.769531 23.808594 -27.15625 C 23.753906 -27.484375 23.535156 -27.703125 23.148438 -27.8125 C 22.765625 -27.921875 22.382812 -27.8125 22 -27.429688 Z M 22 -27.429688 "/></g></g></g><g fill="#000000" fill-opacity="1"><g transform="translate(348.105907, 227.748119)"><g><path d="M 18.871094 -27.101562 C 15.03125 -23.644531 11.960938 -22 9.65625 -22.21875 C 8.339844 -22.382812 7.679688 -23.039062 7.679688 -24.136719 C 7.625 -25.179688 7.84375 -26.441406 8.285156 -27.8125 L 8.394531 -28.140625 C 8.449219 -28.636719 8.394531 -28.964844 8.117188 -29.128906 C 7.84375 -29.292969 7.515625 -29.292969 7.132812 -29.183594 C 6.746094 -29.074219 6.472656 -28.800781 6.253906 -28.363281 C 5.320312 -26.660156 4.5 -25.34375 3.839844 -24.46875 C 3.183594 -23.535156 2.6875 -22.929688 2.304688 -22.65625 C 1.921875 -22.328125 1.644531 -22.164062 1.535156 -22.164062 C 1.480469 -22.164062 1.371094 -22.164062 1.316406 -22.21875 C 1.207031 -22.21875 1.097656 -22.273438 1.042969 -22.382812 C 0.988281 -22.492188 0.933594 -22.65625 0.933594 -22.929688 C 0.933594 -23.480469 1.097656 -24.082031 1.425781 -24.796875 C 1.699219 -25.453125 2.03125 -26.003906 2.414062 -26.441406 C 2.796875 -26.878906 3.070312 -26.992188 3.347656 -26.769531 C 3.621094 -26.496094 4.003906 -26.441406 4.386719 -26.605469 C 4.773438 -26.769531 5.101562 -27.046875 5.320312 -27.429688 C 5.484375 -27.8125 5.484375 -28.140625 5.210938 -28.472656 C 4.386719 -29.292969 3.457031 -29.402344 2.414062 -28.855469 C 1.371094 -28.308594 0.492188 -27.429688 -0.21875 -26.167969 C -0.988281 -24.90625 -1.371094 -23.589844 -1.371094 -22.273438 C -1.261719 -20.738281 -0.492188 -19.96875 0.933594 -19.96875 C 2.304688 -19.96875 3.785156 -21.066406 5.375 -23.207031 C 5.539062 -22.054688 5.980469 -21.230469 6.691406 -20.738281 C 7.40625 -20.242188 8.339844 -19.96875 9.546875 -19.96875 C 12.453125 -19.96875 16.019531 -21.886719 20.1875 -25.671875 C 20.570312 -26.058594 20.738281 -26.441406 20.679688 -26.824219 C 20.570312 -27.15625 20.351562 -27.375 20.023438 -27.484375 C 19.640625 -27.59375 19.253906 -27.484375 18.871094 -27.101562 Z M 18.871094 -27.101562 "/></g></g></g></svg>